<svg width="32" height="34" viewBox="0 0 32 34" fill="none" xmlns="http://www.w3.org/2000/svg">
<path d="M11.7692 28.4344C4.07692 30.7172 4.07692 24.6297 1 23.8688M22.5385 33V27.1104C22.5962 26.3847 22.4971 25.6552 22.2477 24.9703C21.9984 24.2854 21.6045 23.6609 21.0923 23.1383C25.9231 22.6056 31 20.7946 31 12.4852C30.9996 10.3604 30.1734 8.31713 28.6923 6.77822C29.3936 4.91927 29.344 2.8645 28.5538 1.04078C28.5538 1.04078 26.7385 0.508122 22.5385 3.29314C19.0123 2.34779 15.2954 2.34779 11.7692 3.29314C7.56923 0.508122 5.75385 1.04078 5.75385 1.04078C4.96366 2.8645 4.91407 4.91927 5.61538 6.77822C4.12327 8.32854 3.29619 10.3903 3.30769 12.5309C3.30769 20.7794 8.38461 22.5904 13.2154 23.184C12.7092 23.7013 12.3189 24.3184 12.0697 24.9949C11.8205 25.6713 11.7182 26.3922 11.7692 27.1104V33" stroke="#ECECEC" stroke-width="2" stroke-linecap="round" stroke-linejoin="round"/>
</svg>
