<svg width="30" height="30" viewBox="0 0 30 30" fill="none" xmlns="http://www.w3.org/2000/svg">
<path d="M15 7.19751C10.7661 7.19751 7.25806 10.6451 7.25806 14.9394C7.25806 19.2338 10.7056 22.6814 15 22.6814C19.2943 22.6814 22.7419 19.1733 22.7419 14.9394C22.7419 10.7056 19.2339 7.19751 15 7.19751ZM15 19.8991C12.2782 19.8991 10.0403 17.6612 10.0403 14.9394C10.0403 12.2177 12.2782 9.97977 15 9.97977C17.7218 9.97977 19.9597 12.2177 19.9597 14.9394C19.9597 17.6612 17.7218 19.8991 15 19.8991Z" fill="#ECECEC"/>
<path d="M23.0443 8.77003C24.013 8.77003 24.7983 7.98472 24.7983 7.016C24.7983 6.04727 24.013 5.26196 23.0443 5.26196C22.0756 5.26196 21.2903 6.04727 21.2903 7.016C21.2903 7.98472 22.0756 8.77003 23.0443 8.77003Z" fill="#ECECEC"/>
<path d="M27.5806 2.47984C26.0081 0.846774 23.7702 0 21.2298 0H8.77016C3.50806 0 0 3.50806 0 8.77016V21.1694C0 23.7702 0.846774 26.0081 2.54032 27.6411C4.17339 29.2137 6.35081 30 8.83065 30H21.1694C23.7702 30 25.9476 29.1532 27.5202 27.6411C29.1532 26.0685 30 23.8306 30 21.2298V8.77016C30 6.22984 29.1532 4.05242 27.5806 2.47984ZM27.3387 21.2298C27.3387 23.1048 26.6734 24.6169 25.5847 25.6452C24.496 26.6734 22.9839 27.2177 21.1694 27.2177H8.83065C7.01613 27.2177 5.50403 26.6734 4.41532 25.6452C3.32661 24.5565 2.78226 23.0444 2.78226 21.1694V8.77016C2.78226 6.95564 3.32661 5.44355 4.41532 4.35484C5.44355 3.32661 7.01613 2.78226 8.83065 2.78226H21.2903C23.1048 2.78226 24.6169 3.32661 25.7056 4.41532C26.7339 5.50403 27.3387 7.01613 27.3387 8.77016V21.2298Z" fill="#ECECEC"/>
</svg>
